<?xml version="1.0" encoding="utf-8"?>
<!-- Generator: Adobe Illustrator 13.0.0, SVG Export Plug-In . SVG Version: 6.00 Build 14948)  -->
<svg version="1.2" baseProfile="tiny" id="Layer_1" xmlns="http://www.w3.org/2000/svg" xmlns:xlink="http://www.w3.org/1999/xlink"
	 x="0px" y="0px" width="216.356px" height="26.287px" viewBox="0 0 216.356 26.287" xml:space="preserve">
<g>
	<path stroke="#000000" stroke-width="1.5" d="M0.75,7.743h2.28v2.535c0.68-0.999,1.397-1.746,2.152-2.24
		c0.754-0.494,1.541-0.742,2.359-0.742c0.617,0,1.276,0.197,1.977,0.59L8.355,9.768c-0.468-0.202-0.861-0.303-1.18-0.303
		c-0.744,0-1.461,0.306-2.152,0.917s-1.217,1.56-1.578,2.846c-0.277,0.989-0.415,2.987-0.415,5.995v5.867H0.75V7.743z"/>
	<path stroke="#000000" stroke-width="1.5" d="M19.5,7.296c2.672,0,4.887,0.968,6.645,2.902c1.597,1.765,2.396,3.854,2.396,6.266
		c0,2.423-0.844,4.542-2.531,6.354c-1.688,1.812-3.857,2.718-6.509,2.718c-2.662,0-4.837-0.906-6.524-2.718
		c-1.688-1.812-2.532-3.93-2.532-6.354c0-2.402,0.798-4.485,2.396-6.25C14.597,8.269,16.817,7.296,19.5,7.296z M19.492,9.481
		c-1.856,0-3.451,0.686-4.784,2.057c-1.333,1.371-2,3.029-2,4.975c0,1.254,0.304,2.423,0.912,3.507
		c0.608,1.084,1.429,1.921,2.464,2.511s2.171,0.885,3.408,0.885c1.237,0,2.373-0.295,3.408-0.885s1.856-1.427,2.464-2.511
		c0.608-1.084,0.912-2.253,0.912-3.507c0-1.945-0.669-3.604-2.008-4.975S21.337,9.481,19.492,9.481z"/>
	<path stroke="#000000" stroke-width="1.5" d="M32.669,7.743h2.232v3.109c0.893-1.19,1.881-2.081,2.966-2.67
		c1.084-0.59,2.264-0.885,3.54-0.885c1.296,0,2.447,0.33,3.452,0.989s1.746,1.546,2.224,2.663s0.717,2.854,0.717,5.213v8.929h-2.232
		v-8.275c0-1.998-0.083-3.332-0.249-4.002c-0.258-1.148-0.755-2.011-1.488-2.591c-0.733-0.579-1.69-0.869-2.87-0.869
		c-1.35,0-2.56,0.446-3.628,1.339c-1.068,0.893-1.772,1.998-2.113,3.316c-0.212,0.861-0.319,2.434-0.319,4.72v6.361h-2.232V7.743z"
		/>
	<path stroke="#000000" stroke-width="1.5" d="M68.325,7.748l-1.488,1.858c-1.692-0.927-3.241-1.262-4.647-1.003
		c-0.894,0.164-1.614,0.552-2.16,1.163c-0.546,0.612-0.759,1.248-0.638,1.907c0.107,0.583,0.472,1.09,1.094,1.521
		c0.624,0.442,1.844,0.871,3.659,1.287c2.212,0.514,3.763,1.115,4.65,1.805c0.876,0.702,1.41,1.576,1.602,2.619
		c0.271,1.474-0.117,2.834-1.164,4.084c-1.046,1.248-2.495,2.043-4.346,2.383c-1.234,0.228-2.454,0.219-3.659-0.026
		c-1.205-0.244-2.248-0.694-3.129-1.351l1.427-1.967c1.651,1.072,3.264,1.463,4.841,1.173c1.103-0.203,1.988-0.672,2.655-1.408
		c0.666-0.736,0.925-1.505,0.777-2.308c-0.121-0.659-0.485-1.2-1.092-1.623c-0.605-0.411-1.879-0.836-3.819-1.274
		c-2.085-0.48-3.55-1.063-4.396-1.748c-0.846-0.687-1.365-1.551-1.557-2.596c-0.25-1.361,0.096-2.597,1.04-3.701
		c0.944-1.105,2.262-1.813,3.956-2.125C63.901,6.056,66.032,6.499,68.325,7.748z"/>
	<path stroke="#000000" stroke-width="1.5" d="M82.51,7.296c2.672,0,4.887,0.968,6.645,2.902c1.597,1.765,2.396,3.854,2.396,6.266
		c0,2.423-0.844,4.542-2.531,6.354c-1.688,1.812-3.857,2.718-6.509,2.718c-2.662,0-4.837-0.906-6.524-2.718
		c-1.688-1.812-2.532-3.93-2.532-6.354c0-2.402,0.798-4.485,2.396-6.25C77.606,8.269,79.827,7.296,82.51,7.296z M82.502,9.481
		c-1.856,0-3.451,0.686-4.784,2.057c-1.333,1.371-2,3.029-2,4.975c0,1.254,0.304,2.423,0.912,3.507
		c0.608,1.084,1.429,1.921,2.464,2.511s2.171,0.885,3.408,0.885c1.237,0,2.373-0.295,3.408-0.885s1.856-1.427,2.464-2.511
		c0.608-1.084,0.912-2.253,0.912-3.507c0-1.945-0.669-3.604-2.008-4.975S84.347,9.481,82.502,9.481z"/>
	<path stroke="#000000" stroke-width="1.5" d="M95.392,7.743h2.232v8.099c0,1.977,0.106,3.338,0.32,4.082
		c0.319,1.063,0.929,1.903,1.828,2.52c0.899,0.616,1.972,0.924,3.217,0.924s2.302-0.3,3.169-0.9s1.466-1.39,1.796-2.368
		c0.224-0.67,0.335-2.089,0.335-4.257V7.743h2.28v8.514c0,2.392-0.279,4.193-0.837,5.405c-0.558,1.211-1.397,2.16-2.519,2.846
		s-2.527,1.028-4.217,1.028c-1.69,0-3.101-0.343-4.233-1.028c-1.132-0.686-1.977-1.642-2.535-2.87
		c-0.558-1.228-0.837-3.075-0.837-5.541V7.743z"/>
	<path stroke="#000000" stroke-width="1.5" d="M117.474,1.302h2.232v6.441h3.54v1.929h-3.54V25.09h-2.232V9.672h-3.045V7.743h3.045
		V1.302z"/>
	<path stroke="#000000" stroke-width="1.5" d="M126.594,1.047h2.232v9.805c0.903-1.19,1.897-2.081,2.981-2.67
		c1.084-0.59,2.259-0.885,3.524-0.885c1.296,0,2.447,0.33,3.452,0.989s1.746,1.544,2.224,2.655s0.717,2.851,0.717,5.221v8.929
		h-2.232v-8.275c0-1.998-0.08-3.332-0.239-4.002c-0.276-1.148-0.779-2.011-1.507-2.591c-0.728-0.579-1.682-0.869-2.862-0.869
		c-1.35,0-2.559,0.446-3.627,1.339c-1.068,0.893-1.772,1.998-2.113,3.316c-0.212,0.851-0.319,2.424-0.319,4.72v6.361h-2.232V1.047z"
		/>
	<path stroke="#000000" stroke-width="1.5" d="M143.164,7.743h2.296l5.317,12.595l5.535-12.595h0.404l5.572,12.595l5.419-12.595
		h2.321l-7.536,17.347h-0.414l-5.547-12.42l-5.543,12.42h-0.416L143.164,7.743z"/>
	<path stroke="#000000" stroke-width="1.5" d="M173.309,7.743h2.232V25.09h-2.232V7.743z"/>
	<path stroke="#000000" stroke-width="1.5" d="M197.018,11.346l-1.77,1.1c-1.529-2.03-3.615-3.045-6.259-3.045
		c-2.113,0-3.867,0.679-5.263,2.039c-1.396,1.359-2.094,3.01-2.094,4.953c0,1.264,0.321,2.453,0.963,3.567s1.524,1.98,2.644,2.596
		c1.12,0.616,2.375,0.924,3.767,0.924c2.548,0,4.629-1.015,6.243-3.045l1.77,1.164c-0.829,1.249-1.942,2.217-3.34,2.905
		c-1.397,0.688-2.989,1.033-4.775,1.033c-2.742,0-5.017-0.871-6.824-2.615c-1.807-1.743-2.71-3.863-2.71-6.361
		c0-1.68,0.422-3.239,1.267-4.68c0.845-1.44,2.006-2.564,3.484-3.372c1.478-0.808,3.13-1.212,4.958-1.212
		c1.148,0,2.256,0.176,3.324,0.526s1.975,0.808,2.719,1.371C195.864,9.757,196.497,10.475,197.018,11.346z"/>
	<path stroke="#000000" stroke-width="1.5" d="M200.291,1.047h2.232v13.697l8.043-7h3.277l-9.535,8.275L214.4,25.09h-3.141
		l-8.736-7.81v7.81h-2.232V1.047z"/>
</g>
<path stroke="#000000" stroke-width="1.2" d="M174.417,0.6c0.508,0,0.942,0.181,1.302,0.542c0.36,0.362,0.54,0.797,0.54,1.308
	c0,0.5-0.18,0.93-0.54,1.292c-0.359,0.361-0.793,0.542-1.302,0.542c-0.497,0-0.926-0.181-1.286-0.542s-0.54-0.792-0.54-1.292
	c0-0.51,0.18-0.946,0.54-1.308C173.491,0.781,173.92,0.6,174.417,0.6z"/>
</svg>
