<svg xmlns="http://www.w3.org/2000/svg" viewBox="0 0 185 185"><defs><style>.cls-1{fill:red;}</style></defs><g id="Layer_2" data-name="Layer 2"><g id="Layer_1-2" data-name="Layer 1"><circle class="cls-1" cx="92.5" cy="168.5" r="16.5"/><circle class="cls-1" cx="168.5" cy="168.5" r="16.5"/><circle cx="168.5" cy="130.5" r="16.5"/><circle class="cls-1" cx="130.5" cy="130.5" r="16.5"/><circle cx="130.5" cy="168.5" r="16.5"/><circle cx="92.5" cy="130.5" r="16.5"/><path d="M168.5,78A14.5,14.5,0,1,1,154,92.5,14.51,14.51,0,0,1,168.5,78m0-2A16.5,16.5,0,1,0,185,92.5,16.5,16.5,0,0,0,168.5,76Z"/><circle cx="130.5" cy="92.5" r="16.5"/><circle class="cls-1" cx="92.5" cy="92.5" r="16.5"/><circle class="cls-1" cx="16.5" cy="168.5" r="16.5"/><circle cx="54.5" cy="130.5" r="16.5"/><circle class="cls-1" cx="54.5" cy="168.5" r="16.5"/><circle cx="16.5" cy="130.5" r="16.5"/><circle cx="54.5" cy="92.5" r="16.5"/><circle class="cls-1" cx="16.5" cy="92.5" r="16.5"/><path d="M168.5,40A14.5,14.5,0,1,1,154,54.5,14.51,14.51,0,0,1,168.5,40m0-2A16.5,16.5,0,1,0,185,54.5,16.5,16.5,0,0,0,168.5,38Z"/><circle cx="130.5" cy="54.5" r="16.5"/><circle cx="92.5" cy="54.5" r="16.5"/><path d="M168.5,2A14.5,14.5,0,1,1,154,16.5,14.51,14.51,0,0,1,168.5,2m0-2A16.5,16.5,0,1,0,185,16.5,16.5,16.5,0,0,0,168.5,0Z"/><path d="M130.5,2A14.5,14.5,0,1,1,116,16.5,14.51,14.51,0,0,1,130.5,2m0-2A16.5,16.5,0,1,0,147,16.5,16.5,16.5,0,0,0,130.5,0Z"/><path d="M92.5,2A14.5,14.5,0,1,1,78,16.5,14.51,14.51,0,0,1,92.5,2m0-2A16.5,16.5,0,1,0,109,16.5,16.5,16.5,0,0,0,92.5,0Z"/><path d="M54.5,40A14.5,14.5,0,1,1,40,54.5,14.51,14.51,0,0,1,54.5,40m0-2A16.5,16.5,0,1,0,71,54.5,16.5,16.5,0,0,0,54.5,38Z"/><circle class="cls-1" cx="16.5" cy="54.5" r="16.5"/><path d="M54.5,2A14.5,14.5,0,1,1,40,16.5,14.51,14.51,0,0,1,54.5,2m0-2A16.5,16.5,0,1,0,71,16.5,16.5,16.5,0,0,0,54.5,0Z"/><circle class="cls-1" cx="16.5" cy="16.5" r="16.5"/></g></g></svg>